M48
INCH,LZ
;FILE_FORMAT=2:4
;TYPE=PLATED
;Layer: PTH_Through
;EasyEDA v6.5.42, 2024-04-20 17:29:38
;88c8a89ba0d84e72ac533820636c5c94,79741c9dc20a42bbb4667d943d95035a,10
;Gerber Generator version 0.2
;Holesize 1 = 0.0320 inch
T01C0.0320
;Holesize 2 = 0.0350 inch
T02C0.0350
;Holesize 3 = 0.0360 inch
T03C0.0360
;Holesize 4 = 0.0390 inch
T04C0.0390
;Holesize 5 = 0.0410 inch
T05C0.0410
;Holesize 6 = 0.0430 inch
T06C0.0430
;Holesize 7 = 0.1180 inch
T07C0.1180
%
G05
G90
T01
X001969Y018898
X005984Y018898
X011890Y018898
X007874Y018898
X005984Y016142
X001969Y016142
X007874Y016142
X011890Y016142
T02
X019547Y002540G85X019547Y003366
X017283Y001575G85X018150Y001575
X018150Y003937G85X017283Y003937
T03
X009843Y023228
X009843Y022244
X009843Y021260
X003937Y013780
X003937Y012795
X003937Y011811
X009843Y013780
X009843Y012795
X009843Y011811
X026575Y012992
X025591Y012992
X024606Y012992
X026575Y025197
X025590Y025197
X024606Y025197
X003937Y023228
X003937Y022244
X003937Y021260
T04
X018406Y007087
X017027Y007087
X031496Y010236
X031496Y011614
X031496Y022441
X031496Y023819
T05
X003937Y004724
X003937Y005709
X003937Y006693
X003937Y007677
X009842Y004724
X009843Y005709
X009843Y006693
X009843Y007677
X031496Y007102
X031496Y006118
X031496Y005134
X031496Y004150
X031496Y019307
X031496Y018323
X031496Y017339
X031496Y016354
T06
X023172Y003150
X023172Y004150
X023172Y005150
X023172Y006150
X023172Y007150
X023172Y008150
X023172Y009150
X023172Y010150
X028172Y010150
X028172Y009150
X028172Y008150
X028172Y007150
X028172Y006150
X028172Y005150
X028172Y004150
X028172Y003150
X023172Y015354
X023172Y016354
X023172Y017354
X023172Y018354
X023172Y019354
X023172Y020354
X023172Y021354
X023172Y022354
X028172Y022354
X028172Y021354
X028172Y020354
X028172Y019354
X028172Y018354
X028172Y017354
X028172Y016354
X028172Y015354
X014567Y010716
X014567Y011716
X014567Y012716
X014567Y013716
X014567Y014716
X014567Y015716
X014567Y016716
X014567Y017716
X014567Y018716
X014567Y019716
X014567Y020716
X014567Y021716
X014567Y022716
X014567Y023716
X014567Y024716
X020567Y024716
X020567Y023716
X020567Y022716
X020567Y021716
X020567Y020716
X020567Y019716
X020567Y018716
X020567Y017716
X020567Y016716
X020567Y015716
X020567Y014716
X020567Y013716
X020567Y012716
X020567Y011716
X020567Y010716
T07
X001378Y026181
X001378Y001378
X034055Y001378
X034055Y026181
M30
