G04 Layer: TopSilkscreenLayer*
G04 EasyEDA v6.5.42, 2024-04-20 17:29:38*
G04 88c8a89ba0d84e72ac533820636c5c94,79741c9dc20a42bbb4667d943d95035a,10*
G04 Gerber Generator version 0.2*
G04 Scale: 100 percent, Rotated: No, Reflected: No *
G04 Dimensions in inches *
G04 leading zeros omitted , absolute positions ,3 integer and 6 decimal *
%FSLAX36Y36*%
%MOIN*%

%ADD10C,0.0080*%
%ADD11C,0.0060*%
%ADD12C,0.0100*%
%ADD13C,0.0080*%

%LPD*%
D10*
X1811340Y1766300D02*
G01*
X1780940Y1766300D01*
X1775540Y1764499D01*
X1773840Y1760900D01*
X1773840Y1757300D01*
X1798840Y1771599D02*
G01*
X1798840Y1759099D01*
X1798840Y1736599D02*
G01*
X1797039Y1740199D01*
X1793440Y1743699D01*
X1788140Y1745500D01*
X1784539Y1745500D01*
X1779139Y1743699D01*
X1775540Y1740199D01*
X1773840Y1736599D01*
X1773840Y1731199D01*
X1775540Y1727600D01*
X1779139Y1724000D01*
X1784539Y1722300D01*
X1788140Y1722300D01*
X1793440Y1724000D01*
X1797039Y1727600D01*
X1798840Y1731199D01*
X1798840Y1736599D01*
X1798840Y1701500D02*
G01*
X1797039Y1705100D01*
X1793440Y1708699D01*
X1788140Y1710399D01*
X1784539Y1710399D01*
X1779139Y1708699D01*
X1775540Y1705100D01*
X1773840Y1701500D01*
X1773840Y1696100D01*
X1775540Y1692600D01*
X1779139Y1689000D01*
X1784539Y1687199D01*
X1788140Y1687199D01*
X1793440Y1689000D01*
X1797039Y1692600D01*
X1798840Y1696100D01*
X1798840Y1701500D01*
X1811340Y1670000D02*
G01*
X1780940Y1670000D01*
X1775540Y1668200D01*
X1773840Y1664600D01*
X1773840Y1661100D01*
X1798840Y1675399D02*
G01*
X1798840Y1662800D01*
X1811340Y1649200D02*
G01*
X1773840Y1649200D01*
X1791739Y1649200D02*
G01*
X1797039Y1643899D01*
X1798840Y1640300D01*
X1798840Y1634899D01*
X1797039Y1631300D01*
X1791739Y1629600D01*
X1773840Y1629600D01*
X1811340Y1617699D02*
G01*
X1773840Y1617699D01*
X1793440Y1617699D02*
G01*
X1797039Y1614200D01*
X1798840Y1610599D01*
X1798840Y1605199D01*
X1797039Y1601599D01*
X1793440Y1598099D01*
X1788140Y1596300D01*
X1784539Y1596300D01*
X1779139Y1598099D01*
X1775540Y1601599D01*
X1773840Y1605199D01*
X1773840Y1610599D01*
X1775540Y1614200D01*
X1779139Y1617699D01*
X1798840Y1584499D02*
G01*
X1773840Y1584499D01*
X1788140Y1584499D02*
G01*
X1793440Y1582699D01*
X1797039Y1579099D01*
X1798840Y1575500D01*
X1798840Y1570100D01*
X1798840Y1558299D02*
G01*
X1780940Y1558299D01*
X1775540Y1556500D01*
X1773840Y1553000D01*
X1773840Y1547600D01*
X1775540Y1544000D01*
X1780940Y1538699D01*
X1798840Y1538699D02*
G01*
X1773840Y1538699D01*
X1793440Y1507199D02*
G01*
X1797039Y1508899D01*
X1798840Y1514299D01*
X1798840Y1519699D01*
X1797039Y1525100D01*
X1793440Y1526799D01*
X1789939Y1525100D01*
X1788140Y1521500D01*
X1786340Y1512500D01*
X1784539Y1508899D01*
X1780940Y1507199D01*
X1779139Y1507199D01*
X1775540Y1508899D01*
X1773840Y1514299D01*
X1773840Y1519699D01*
X1775540Y1525100D01*
X1779139Y1526799D01*
X1811340Y1495300D02*
G01*
X1773840Y1495300D01*
X1791739Y1495300D02*
G01*
X1797039Y1490000D01*
X1798840Y1486399D01*
X1798840Y1480999D01*
X1797039Y1477399D01*
X1791739Y1475700D01*
X1773840Y1475700D01*
X1788140Y1463800D02*
G01*
X1788140Y1442399D01*
X1791739Y1442399D01*
X1795240Y1444200D01*
X1797039Y1445999D01*
X1798840Y1449499D01*
X1798840Y1454899D01*
X1797039Y1458499D01*
X1793440Y1462100D01*
X1788140Y1463800D01*
X1784539Y1463800D01*
X1779139Y1462100D01*
X1775540Y1458499D01*
X1773840Y1454899D01*
X1773840Y1449499D01*
X1775540Y1445999D01*
X1779139Y1442399D01*
X1793440Y1410900D02*
G01*
X1797039Y1412699D01*
X1798840Y1418000D01*
X1798840Y1423400D01*
X1797039Y1428800D01*
X1793440Y1430599D01*
X1789939Y1428800D01*
X1788140Y1425199D01*
X1786340Y1416199D01*
X1784539Y1412699D01*
X1780940Y1410900D01*
X1779139Y1410900D01*
X1775540Y1412699D01*
X1773840Y1418000D01*
X1773840Y1423400D01*
X1775540Y1428800D01*
X1779139Y1430599D01*
X1793440Y1351799D02*
G01*
X1797039Y1353600D01*
X1798840Y1359000D01*
X1798840Y1364299D01*
X1797039Y1369699D01*
X1793440Y1371500D01*
X1789939Y1369699D01*
X1788140Y1366100D01*
X1786340Y1357199D01*
X1784539Y1353600D01*
X1780940Y1351799D01*
X1779139Y1351799D01*
X1775540Y1353600D01*
X1773840Y1359000D01*
X1773840Y1364299D01*
X1775540Y1369699D01*
X1779139Y1371500D01*
X1811340Y1340000D02*
G01*
X1773840Y1340000D01*
X1791739Y1340000D02*
G01*
X1797039Y1334600D01*
X1798840Y1331100D01*
X1798840Y1325700D01*
X1797039Y1322100D01*
X1791739Y1320300D01*
X1773840Y1320300D01*
X1798840Y1299600D02*
G01*
X1797039Y1303099D01*
X1793440Y1306700D01*
X1788140Y1308499D01*
X1784539Y1308499D01*
X1779139Y1306700D01*
X1775540Y1303099D01*
X1773840Y1299600D01*
X1773840Y1294200D01*
X1775540Y1290599D01*
X1779139Y1286999D01*
X1784539Y1285300D01*
X1788140Y1285300D01*
X1793440Y1286999D01*
X1797039Y1290599D01*
X1798840Y1294200D01*
X1798840Y1299600D01*
X1798840Y1273400D02*
G01*
X1773840Y1266300D01*
X1798840Y1259099D02*
G01*
X1773840Y1266300D01*
X1798840Y1259099D02*
G01*
X1773840Y1251999D01*
X1798840Y1244800D02*
G01*
X1773840Y1251999D01*
X1793440Y1211500D02*
G01*
X1797039Y1215100D01*
X1798840Y1218699D01*
X1798840Y1224000D01*
X1797039Y1227600D01*
X1793440Y1231199D01*
X1788140Y1233000D01*
X1784539Y1233000D01*
X1779139Y1231199D01*
X1775540Y1227600D01*
X1773840Y1224000D01*
X1773840Y1218699D01*
X1775540Y1215100D01*
X1779139Y1211500D01*
X1798840Y1178200D02*
G01*
X1773840Y1178200D01*
X1793440Y1178200D02*
G01*
X1797039Y1181799D01*
X1798840Y1185399D01*
X1798840Y1190799D01*
X1797039Y1194299D01*
X1793440Y1197899D01*
X1788140Y1199699D01*
X1784539Y1199699D01*
X1779139Y1197899D01*
X1775540Y1194299D01*
X1773840Y1190799D01*
X1773840Y1185399D01*
X1775540Y1181799D01*
X1779139Y1178200D01*
X1793440Y1146700D02*
G01*
X1797039Y1148499D01*
X1798840Y1153899D01*
X1798840Y1159299D01*
X1797039Y1164600D01*
X1793440Y1166399D01*
X1789939Y1164600D01*
X1788140Y1161100D01*
X1786340Y1152100D01*
X1784539Y1148499D01*
X1780940Y1146700D01*
X1779139Y1146700D01*
X1775540Y1148499D01*
X1773840Y1153899D01*
X1773840Y1159299D01*
X1775540Y1164600D01*
X1779139Y1166399D01*
X1788140Y1134899D02*
G01*
X1788140Y1113499D01*
X1791739Y1113499D01*
X1795240Y1115199D01*
X1797039Y1116999D01*
X1798840Y1120599D01*
X1798840Y1125999D01*
X1797039Y1129600D01*
X1793440Y1133099D01*
X1788140Y1134899D01*
X1784539Y1134899D01*
X1779139Y1133099D01*
X1775540Y1129600D01*
X1773840Y1125999D01*
X1773840Y1120599D01*
X1775540Y1116999D01*
X1779139Y1113499D01*
X1720129Y1220479D02*
G01*
X1695029Y1209780D01*
X1720129Y1198980D02*
G01*
X1695029Y1209780D01*
X1725429Y1187179D02*
G01*
X1727229Y1183580D01*
X1732629Y1178279D01*
X1695029Y1178279D01*
X1704030Y1164679D02*
G01*
X1702229Y1166379D01*
X1700429Y1164679D01*
X1702229Y1162880D01*
X1704030Y1164679D01*
X1732629Y1140279D02*
G01*
X1730829Y1145680D01*
X1725429Y1149279D01*
X1716530Y1151080D01*
X1711130Y1151080D01*
X1702229Y1149279D01*
X1696830Y1145680D01*
X1695029Y1140279D01*
X1695029Y1136680D01*
X1696830Y1131379D01*
X1702229Y1127779D01*
X1711130Y1125979D01*
X1716530Y1125979D01*
X1725429Y1127779D01*
X1730829Y1131379D01*
X1732629Y1136680D01*
X1732629Y1140279D01*
X1377939Y145329D02*
G01*
X1388639Y120230D01*
X1399440Y145329D02*
G01*
X1388639Y120230D01*
X1411239Y150630D02*
G01*
X1414840Y152429D01*
X1420140Y157829D01*
X1420140Y120230D01*
X1433739Y129229D02*
G01*
X1432039Y127429D01*
X1433739Y125630D01*
X1435540Y127429D01*
X1433739Y129229D01*
X1458140Y157829D02*
G01*
X1452740Y156030D01*
X1449139Y150630D01*
X1447340Y141729D01*
X1447340Y136329D01*
X1449139Y127429D01*
X1452740Y122029D01*
X1458140Y120230D01*
X1461739Y120230D01*
X1467039Y122029D01*
X1470640Y127429D01*
X1472439Y136329D01*
X1472439Y141729D01*
X1470640Y150630D01*
X1467039Y156030D01*
X1461739Y157829D01*
X1458140Y157829D01*
X832160Y236599D02*
G01*
X832160Y206199D01*
X833959Y200799D01*
X837460Y199000D01*
X841059Y199000D01*
X826760Y224099D02*
G01*
X839260Y224099D01*
X861859Y224099D02*
G01*
X858260Y222300D01*
X854660Y218699D01*
X852860Y213299D01*
X852860Y209699D01*
X854660Y204400D01*
X858260Y200799D01*
X861859Y199000D01*
X867259Y199000D01*
X870760Y200799D01*
X874359Y204400D01*
X876159Y209699D01*
X876159Y213299D01*
X874359Y218699D01*
X870760Y222300D01*
X867259Y224099D01*
X861859Y224099D01*
X896959Y224099D02*
G01*
X893360Y222300D01*
X889759Y218699D01*
X887960Y213299D01*
X887960Y209699D01*
X889759Y204400D01*
X893360Y200799D01*
X896959Y199000D01*
X902259Y199000D01*
X905860Y200799D01*
X909459Y204400D01*
X911260Y209699D01*
X911260Y213299D01*
X909459Y218699D01*
X905860Y222300D01*
X902259Y224099D01*
X896959Y224099D01*
X928459Y236599D02*
G01*
X928459Y206199D01*
X930159Y200799D01*
X933760Y199000D01*
X937359Y199000D01*
X923059Y224099D02*
G01*
X935559Y224099D01*
X949160Y236599D02*
G01*
X949160Y199000D01*
X949160Y216900D02*
G01*
X954560Y222300D01*
X958159Y224099D01*
X963459Y224099D01*
X967060Y222300D01*
X968860Y216900D01*
X968860Y199000D01*
X980659Y236599D02*
G01*
X980659Y199000D01*
X980659Y218699D02*
G01*
X984260Y222300D01*
X987860Y224099D01*
X993159Y224099D01*
X996760Y222300D01*
X1000360Y218699D01*
X1002160Y213299D01*
X1002160Y209699D01*
X1000360Y204400D01*
X996760Y200799D01*
X993159Y199000D01*
X987860Y199000D01*
X984260Y200799D01*
X980659Y204400D01*
X1013959Y224099D02*
G01*
X1013959Y199000D01*
X1013959Y213299D02*
G01*
X1015760Y218699D01*
X1019359Y222300D01*
X1022860Y224099D01*
X1028260Y224099D01*
X1040060Y224099D02*
G01*
X1040060Y206199D01*
X1041859Y200799D01*
X1045460Y199000D01*
X1050860Y199000D01*
X1054359Y200799D01*
X1059759Y206199D01*
X1059759Y224099D02*
G01*
X1059759Y199000D01*
X1091260Y218699D02*
G01*
X1089459Y222300D01*
X1084059Y224099D01*
X1078760Y224099D01*
X1073360Y222300D01*
X1071559Y218699D01*
X1073360Y215100D01*
X1076959Y213299D01*
X1085860Y211500D01*
X1089459Y209699D01*
X1091260Y206199D01*
X1091260Y204400D01*
X1089459Y200799D01*
X1084059Y199000D01*
X1078760Y199000D01*
X1073360Y200799D01*
X1071559Y204400D01*
X1103059Y236599D02*
G01*
X1103059Y199000D01*
X1103059Y216900D02*
G01*
X1108459Y222300D01*
X1112060Y224099D01*
X1117359Y224099D01*
X1120959Y222300D01*
X1122759Y216900D01*
X1122759Y199000D01*
X1134560Y213299D02*
G01*
X1156059Y213299D01*
X1156059Y216900D01*
X1154260Y220500D01*
X1152460Y222300D01*
X1148860Y224099D01*
X1143559Y224099D01*
X1139960Y222300D01*
X1136360Y218699D01*
X1134560Y213299D01*
X1134560Y209699D01*
X1136360Y204400D01*
X1139960Y200799D01*
X1143559Y199000D01*
X1148860Y199000D01*
X1152460Y200799D01*
X1156059Y204400D01*
X1187560Y218699D02*
G01*
X1185760Y222300D01*
X1180360Y224099D01*
X1175060Y224099D01*
X1169660Y222300D01*
X1167860Y218699D01*
X1169660Y215100D01*
X1173260Y213299D01*
X1182160Y211500D01*
X1185760Y209699D01*
X1187560Y206199D01*
X1187560Y204400D01*
X1185760Y200799D01*
X1180360Y199000D01*
X1175060Y199000D01*
X1169660Y200799D01*
X1167860Y204400D01*
X1246559Y218699D02*
G01*
X1244759Y222300D01*
X1239459Y224099D01*
X1234059Y224099D01*
X1228659Y222300D01*
X1226959Y218699D01*
X1228659Y215100D01*
X1232259Y213299D01*
X1241260Y211500D01*
X1244759Y209699D01*
X1246559Y206199D01*
X1246559Y204400D01*
X1244759Y200799D01*
X1239459Y199000D01*
X1234059Y199000D01*
X1228659Y200799D01*
X1226959Y204400D01*
X1258360Y236599D02*
G01*
X1258360Y199000D01*
X1258360Y216900D02*
G01*
X1263760Y222300D01*
X1267359Y224099D01*
X1272759Y224099D01*
X1276260Y222300D01*
X1278059Y216900D01*
X1278059Y199000D01*
X1298860Y224099D02*
G01*
X1295259Y222300D01*
X1291660Y218699D01*
X1289859Y213299D01*
X1289859Y209699D01*
X1291660Y204400D01*
X1295259Y200799D01*
X1298860Y199000D01*
X1304260Y199000D01*
X1307759Y200799D01*
X1311360Y204400D01*
X1313159Y209699D01*
X1313159Y213299D01*
X1311360Y218699D01*
X1307759Y222300D01*
X1304260Y224099D01*
X1298860Y224099D01*
X1324960Y224099D02*
G01*
X1332160Y199000D01*
X1339260Y224099D02*
G01*
X1332160Y199000D01*
X1339260Y224099D02*
G01*
X1346459Y199000D01*
X1353659Y224099D02*
G01*
X1346459Y199000D01*
X1386859Y218699D02*
G01*
X1383360Y222300D01*
X1379759Y224099D01*
X1374359Y224099D01*
X1370760Y222300D01*
X1367259Y218699D01*
X1365460Y213299D01*
X1365460Y209699D01*
X1367259Y204400D01*
X1370760Y200799D01*
X1374359Y199000D01*
X1379759Y199000D01*
X1383360Y200799D01*
X1386859Y204400D01*
X1420159Y224099D02*
G01*
X1420159Y199000D01*
X1420159Y218699D02*
G01*
X1416559Y222300D01*
X1413059Y224099D01*
X1407659Y224099D01*
X1404059Y222300D01*
X1400460Y218699D01*
X1398659Y213299D01*
X1398659Y209699D01*
X1400460Y204400D01*
X1404059Y200799D01*
X1407659Y199000D01*
X1413059Y199000D01*
X1416559Y200799D01*
X1420159Y204400D01*
X1451660Y218699D02*
G01*
X1449859Y222300D01*
X1444560Y224099D01*
X1439160Y224099D01*
X1433760Y222300D01*
X1431959Y218699D01*
X1433760Y215100D01*
X1437359Y213299D01*
X1446360Y211500D01*
X1449859Y209699D01*
X1451660Y206199D01*
X1451660Y204400D01*
X1449859Y200799D01*
X1444560Y199000D01*
X1439160Y199000D01*
X1433760Y200799D01*
X1431959Y204400D01*
X1463459Y213299D02*
G01*
X1484960Y213299D01*
X1484960Y216900D01*
X1483159Y220500D01*
X1481360Y222300D01*
X1477759Y224099D01*
X1472460Y224099D01*
X1468860Y222300D01*
X1465259Y218699D01*
X1463459Y213299D01*
X1463459Y209699D01*
X1465259Y204400D01*
X1468860Y200799D01*
X1472460Y199000D01*
X1477759Y199000D01*
X1481360Y200799D01*
X1484960Y204400D01*
D11*
X1187100Y2322860D02*
G01*
X1144200Y2322860D01*
X1187100Y2322860D02*
G01*
X1187100Y2304459D01*
X1185100Y2298260D01*
X1183000Y2296260D01*
X1178999Y2294160D01*
X1174899Y2294160D01*
X1170799Y2296260D01*
X1168699Y2298260D01*
X1166700Y2304459D01*
X1166700Y2322860D02*
G01*
X1166700Y2304459D01*
X1164600Y2298260D01*
X1162600Y2296260D01*
X1158500Y2294160D01*
X1152399Y2294160D01*
X1148299Y2296260D01*
X1146199Y2298260D01*
X1144200Y2304459D01*
X1144200Y2322860D01*
X1187100Y2280659D02*
G01*
X1156499Y2280659D01*
X1150299Y2278660D01*
X1146199Y2274560D01*
X1144200Y2268460D01*
X1144200Y2264360D01*
X1146199Y2258159D01*
X1150299Y2254059D01*
X1156499Y2252060D01*
X1187100Y2252060D01*
X1187100Y2224259D02*
G01*
X1144200Y2224259D01*
X1187100Y2238560D02*
G01*
X1187100Y2209960D01*
X1187100Y2182060D02*
G01*
X1144200Y2182060D01*
X1187100Y2196460D02*
G01*
X1187100Y2167759D01*
X1187100Y2142060D02*
G01*
X1185100Y2146060D01*
X1181000Y2150160D01*
X1176899Y2152260D01*
X1170799Y2154259D01*
X1160500Y2154259D01*
X1154399Y2152260D01*
X1150299Y2150160D01*
X1146199Y2146060D01*
X1144200Y2142060D01*
X1144200Y2133859D01*
X1146199Y2129760D01*
X1150299Y2125659D01*
X1154399Y2123560D01*
X1160500Y2121559D01*
X1170799Y2121559D01*
X1176899Y2123560D01*
X1181000Y2125659D01*
X1185100Y2129760D01*
X1187100Y2133859D01*
X1187100Y2142060D01*
X1187100Y2108060D02*
G01*
X1144200Y2108060D01*
X1187100Y2108060D02*
G01*
X1144200Y2079459D01*
X1187100Y2079459D02*
G01*
X1144200Y2079459D01*
X1129899Y2065960D02*
G01*
X1129899Y2029059D01*
X1176899Y2013560D02*
G01*
X1178999Y2013560D01*
X1183000Y2011559D01*
X1185100Y2009459D01*
X1187100Y2005360D01*
X1187100Y1997159D01*
X1185100Y1993060D01*
X1183000Y1991060D01*
X1178999Y1989059D01*
X1174899Y1989059D01*
X1170799Y1991060D01*
X1164600Y1995160D01*
X1144200Y2015560D01*
X1144200Y1986959D01*
X596630Y1377930D02*
G01*
X553629Y1377930D01*
X596630Y1377930D02*
G01*
X596630Y1359529D01*
X594529Y1353429D01*
X592530Y1351329D01*
X588429Y1349330D01*
X584329Y1349330D01*
X580230Y1351329D01*
X578130Y1353429D01*
X576129Y1359529D01*
X576129Y1377930D02*
G01*
X576129Y1359529D01*
X574130Y1353429D01*
X572029Y1351329D01*
X567930Y1349330D01*
X561829Y1349330D01*
X557730Y1351329D01*
X555630Y1353429D01*
X553629Y1359529D01*
X553629Y1377930D01*
X596630Y1335830D02*
G01*
X565929Y1335830D01*
X559729Y1333730D01*
X555630Y1329630D01*
X553629Y1323530D01*
X553629Y1319430D01*
X555630Y1313330D01*
X559729Y1309229D01*
X565929Y1307130D01*
X596630Y1307130D01*
X596630Y1279330D02*
G01*
X553629Y1279330D01*
X596630Y1293629D02*
G01*
X596630Y1265030D01*
X596630Y1237229D02*
G01*
X553629Y1237229D01*
X596630Y1251529D02*
G01*
X596630Y1222930D01*
X596630Y1197130D02*
G01*
X594529Y1201230D01*
X590430Y1205329D01*
X586329Y1207330D01*
X580230Y1209430D01*
X570030Y1209430D01*
X563829Y1207330D01*
X559729Y1205329D01*
X555630Y1201230D01*
X553629Y1197130D01*
X553629Y1188930D01*
X555630Y1184830D01*
X559729Y1180729D01*
X563829Y1178730D01*
X570030Y1176630D01*
X580230Y1176630D01*
X586329Y1178730D01*
X590430Y1180729D01*
X594529Y1184830D01*
X596630Y1188930D01*
X596630Y1197130D01*
X596630Y1163130D02*
G01*
X553629Y1163130D01*
X596630Y1163130D02*
G01*
X553629Y1134529D01*
X596630Y1134529D02*
G01*
X553629Y1134529D01*
X539329Y1121030D02*
G01*
X539329Y1084229D01*
X596630Y1066630D02*
G01*
X596630Y1044130D01*
X580230Y1056430D01*
X580230Y1050230D01*
X578130Y1046129D01*
X576129Y1044130D01*
X570030Y1042130D01*
X565929Y1042130D01*
X559729Y1044130D01*
X555630Y1048229D01*
X553629Y1054330D01*
X553629Y1060529D01*
X555630Y1066630D01*
X557730Y1068629D01*
X561829Y1070729D01*
X1187179Y1377979D02*
G01*
X1144179Y1377979D01*
X1187179Y1377979D02*
G01*
X1187179Y1359580D01*
X1185079Y1353380D01*
X1183080Y1351379D01*
X1178980Y1349279D01*
X1174880Y1349279D01*
X1170780Y1351379D01*
X1168680Y1353380D01*
X1166679Y1359580D01*
X1166679Y1377979D02*
G01*
X1166679Y1359580D01*
X1164679Y1353380D01*
X1162579Y1351379D01*
X1158479Y1349279D01*
X1152380Y1349279D01*
X1148280Y1351379D01*
X1146180Y1353380D01*
X1144179Y1359580D01*
X1144179Y1377979D01*
X1187179Y1335779D02*
G01*
X1156480Y1335779D01*
X1150280Y1333780D01*
X1146180Y1329679D01*
X1144179Y1323580D01*
X1144179Y1319479D01*
X1146180Y1313279D01*
X1150280Y1309180D01*
X1156480Y1307179D01*
X1187179Y1307179D01*
X1187179Y1279380D02*
G01*
X1144179Y1279380D01*
X1187179Y1293679D02*
G01*
X1187179Y1265079D01*
X1187179Y1237179D02*
G01*
X1144179Y1237179D01*
X1187179Y1251579D02*
G01*
X1187179Y1222880D01*
X1187179Y1197179D02*
G01*
X1185079Y1201179D01*
X1180979Y1205279D01*
X1176880Y1207379D01*
X1170780Y1209380D01*
X1160580Y1209380D01*
X1154380Y1207379D01*
X1150280Y1205279D01*
X1146180Y1201179D01*
X1144179Y1197179D01*
X1144179Y1188980D01*
X1146180Y1184879D01*
X1150280Y1180779D01*
X1154380Y1178679D01*
X1160580Y1176680D01*
X1170780Y1176680D01*
X1176880Y1178679D01*
X1180979Y1180779D01*
X1185079Y1184879D01*
X1187179Y1188980D01*
X1187179Y1197179D01*
X1187179Y1163180D02*
G01*
X1144179Y1163180D01*
X1187179Y1163180D02*
G01*
X1144179Y1134580D01*
X1187179Y1134580D02*
G01*
X1144179Y1134580D01*
X1129880Y1121080D02*
G01*
X1129880Y1084180D01*
X1187179Y1050279D02*
G01*
X1158479Y1070680D01*
X1158479Y1040079D01*
X1187179Y1050279D02*
G01*
X1144179Y1050279D01*
X557190Y629929D02*
G01*
X514290Y629929D01*
X557190Y629929D02*
G01*
X557190Y615630D01*
X555189Y609430D01*
X551089Y605329D01*
X546990Y603330D01*
X540889Y601329D01*
X530590Y601329D01*
X524490Y603330D01*
X520390Y605329D01*
X516289Y609430D01*
X514290Y615630D01*
X514290Y629929D01*
X557190Y587829D02*
G01*
X514290Y587829D01*
X551089Y545630D02*
G01*
X555189Y549729D01*
X557190Y555830D01*
X557190Y564029D01*
X555189Y570230D01*
X551089Y574329D01*
X546990Y574329D01*
X542890Y572229D01*
X540889Y570230D01*
X538789Y566129D01*
X534690Y553829D01*
X532689Y549729D01*
X530590Y547730D01*
X526489Y545630D01*
X520390Y545630D01*
X516289Y549729D01*
X514290Y555830D01*
X514290Y564029D01*
X516289Y570230D01*
X520390Y574329D01*
X557190Y532130D02*
G01*
X514290Y532130D01*
X557190Y532130D02*
G01*
X557190Y513730D01*
X555189Y507629D01*
X553090Y505529D01*
X548989Y503530D01*
X542890Y503530D01*
X538789Y505529D01*
X536790Y507629D01*
X534690Y513730D01*
X534690Y532130D01*
X557190Y490030D02*
G01*
X514290Y490030D01*
X514290Y490030D02*
G01*
X514290Y465430D01*
X557190Y435630D02*
G01*
X514290Y451930D01*
X557190Y435630D02*
G01*
X514290Y419229D01*
X528589Y445830D02*
G01*
X528589Y425329D01*
X557190Y405729D02*
G01*
X536790Y389329D01*
X514290Y389329D01*
X557190Y373029D02*
G01*
X536790Y389329D01*
X1147719Y590560D02*
G01*
X1104819Y580360D01*
X1147719Y570059D02*
G01*
X1104819Y580360D01*
X1147719Y570059D02*
G01*
X1104819Y559859D01*
X1147719Y549659D02*
G01*
X1104819Y559859D01*
X1147719Y536159D02*
G01*
X1104819Y536159D01*
X1147719Y536159D02*
G01*
X1147719Y509560D01*
X1127319Y536159D02*
G01*
X1127319Y519760D01*
X1104819Y536159D02*
G01*
X1104819Y509560D01*
X1147719Y496060D02*
G01*
X1104819Y496060D01*
X1137520Y451860D02*
G01*
X1141620Y453960D01*
X1145720Y457959D01*
X1147719Y462060D01*
X1147719Y470259D01*
X1145720Y474360D01*
X1141620Y478460D01*
X1137520Y480459D01*
X1131419Y482559D01*
X1121220Y482559D01*
X1115020Y480459D01*
X1110919Y478460D01*
X1106819Y474360D01*
X1104819Y470259D01*
X1104819Y462060D01*
X1106819Y457959D01*
X1110919Y453960D01*
X1115020Y451860D01*
X1121220Y451860D01*
X1121220Y462060D02*
G01*
X1121220Y451860D01*
X1147719Y438359D02*
G01*
X1104819Y438359D01*
X1147719Y409760D02*
G01*
X1104819Y409760D01*
X1127319Y438359D02*
G01*
X1127319Y409760D01*
X1147719Y381959D02*
G01*
X1104819Y381959D01*
X1147719Y396260D02*
G01*
X1147719Y367559D01*
X3031419Y758719D02*
G01*
X3035519Y762820D01*
X3037520Y769020D01*
X3037520Y777220D01*
X3035519Y783319D01*
X3031419Y787420D01*
X3027319Y787420D01*
X3023220Y785320D01*
X3021120Y783319D01*
X3019120Y779220D01*
X3015020Y766920D01*
X3013019Y762820D01*
X3010919Y760819D01*
X3006819Y758719D01*
X3000720Y758719D01*
X2996620Y762820D01*
X2994620Y769020D01*
X2994620Y777220D01*
X2996620Y783319D01*
X3000720Y787420D01*
X3037520Y730920D02*
G01*
X2994620Y730920D01*
X3037520Y745219D02*
G01*
X3037520Y716619D01*
X3037520Y703119D02*
G01*
X2994620Y703119D01*
X3037520Y703119D02*
G01*
X3037520Y676520D01*
X3017120Y703119D02*
G01*
X3017120Y686720D01*
X2994620Y703119D02*
G01*
X2994620Y676520D01*
X3037520Y663020D02*
G01*
X2994620Y663020D01*
X3037520Y663020D02*
G01*
X3037520Y644619D01*
X3035519Y638519D01*
X3033419Y636419D01*
X3029319Y634420D01*
X3023220Y634420D01*
X3019120Y636419D01*
X3017120Y638519D01*
X3015020Y644619D01*
X3015020Y663020D01*
X3037520Y620920D02*
G01*
X2994620Y620920D01*
X3037520Y620920D02*
G01*
X3037520Y602519D01*
X3035519Y596320D01*
X3033419Y594319D01*
X3029319Y592220D01*
X3023220Y592220D01*
X3019120Y594319D01*
X3017120Y596320D01*
X3015020Y602519D01*
X3015020Y620920D01*
X3037520Y578719D02*
G01*
X2994620Y578719D01*
X3037520Y578719D02*
G01*
X3037520Y552220D01*
X3017120Y578719D02*
G01*
X3017120Y562420D01*
X2994620Y578719D02*
G01*
X2994620Y552220D01*
X3037520Y538719D02*
G01*
X2994620Y538719D01*
X3037520Y538719D02*
G01*
X3037520Y520219D01*
X3035519Y514119D01*
X3033419Y512119D01*
X3029319Y510019D01*
X3025219Y510019D01*
X3021120Y512119D01*
X3019120Y514119D01*
X3017120Y520219D01*
X3017120Y538719D01*
X3017120Y524319D02*
G01*
X2994620Y510019D01*
X2980219Y496520D02*
G01*
X2980219Y459720D01*
X3029319Y446219D02*
G01*
X3031419Y442119D01*
X3037520Y436019D01*
X2994620Y436019D01*
X3031350Y1979189D02*
G01*
X3035450Y1983290D01*
X3037550Y1989490D01*
X3037550Y1997689D01*
X3035450Y2003789D01*
X3031350Y2007890D01*
X3027349Y2007890D01*
X3023249Y2005790D01*
X3021149Y2003789D01*
X3019149Y1999690D01*
X3015050Y1987390D01*
X3012950Y1983290D01*
X3010950Y1981289D01*
X3006850Y1979189D01*
X3000749Y1979189D01*
X2996649Y1983290D01*
X2994549Y1989490D01*
X2994549Y1997689D01*
X2996649Y2003789D01*
X3000749Y2007890D01*
X3037550Y1951390D02*
G01*
X2994549Y1951390D01*
X3037550Y1965689D02*
G01*
X3037550Y1937089D01*
X3037550Y1923589D02*
G01*
X2994549Y1923589D01*
X3037550Y1923589D02*
G01*
X3037550Y1896990D01*
X3017049Y1923589D02*
G01*
X3017049Y1907190D01*
X2994549Y1923589D02*
G01*
X2994549Y1896990D01*
X3037550Y1883490D02*
G01*
X2994549Y1883490D01*
X3037550Y1883490D02*
G01*
X3037550Y1865090D01*
X3035450Y1858989D01*
X3033450Y1856889D01*
X3029350Y1854890D01*
X3023249Y1854890D01*
X3019149Y1856889D01*
X3017049Y1858989D01*
X3015050Y1865090D01*
X3015050Y1883490D01*
X3037550Y1841390D02*
G01*
X2994549Y1841390D01*
X3037550Y1841390D02*
G01*
X3037550Y1822989D01*
X3035450Y1816790D01*
X3033450Y1814789D01*
X3029350Y1812689D01*
X3023249Y1812689D01*
X3019149Y1814789D01*
X3017049Y1816790D01*
X3015050Y1822989D01*
X3015050Y1841390D01*
X3037550Y1799189D02*
G01*
X2994549Y1799189D01*
X3037550Y1799189D02*
G01*
X3037550Y1772689D01*
X3017049Y1799189D02*
G01*
X3017049Y1782890D01*
X2994549Y1799189D02*
G01*
X2994549Y1772689D01*
X3037550Y1759189D02*
G01*
X2994549Y1759189D01*
X3037550Y1759189D02*
G01*
X3037550Y1740689D01*
X3035450Y1734589D01*
X3033450Y1732590D01*
X3029350Y1730489D01*
X3025249Y1730489D01*
X3021149Y1732590D01*
X3019149Y1734589D01*
X3017049Y1740689D01*
X3017049Y1759189D01*
X3017049Y1744789D02*
G01*
X2994549Y1730489D01*
X2980249Y1716990D02*
G01*
X2980249Y1680189D01*
X3027349Y1664690D02*
G01*
X3029350Y1664690D01*
X3033450Y1662590D01*
X3035450Y1660590D01*
X3037550Y1656489D01*
X3037550Y1648290D01*
X3035450Y1644189D01*
X3033450Y1642190D01*
X3029350Y1640090D01*
X3025249Y1640090D01*
X3021149Y1642190D01*
X3015050Y1646190D01*
X2994549Y1666689D01*
X2994549Y1638090D01*
X2322849Y1147750D02*
G01*
X2322849Y1104850D01*
X2322849Y1104850D02*
G01*
X2347349Y1104850D01*
X2360850Y1147750D02*
G01*
X2360850Y1104850D01*
X2374350Y1147750D02*
G01*
X2374350Y1104850D01*
X2374350Y1147750D02*
G01*
X2390749Y1104850D01*
X2407150Y1147750D02*
G01*
X2390749Y1104850D01*
X2407150Y1147750D02*
G01*
X2407150Y1104850D01*
X2420649Y1147750D02*
G01*
X2420649Y1104850D01*
X2448450Y1147750D02*
G01*
X2448450Y1104850D01*
X2434149Y1147750D02*
G01*
X2462749Y1147750D01*
X2476250Y1090450D02*
G01*
X2513050Y1090450D01*
X2555150Y1141649D02*
G01*
X2551149Y1145749D01*
X2544949Y1147750D01*
X2536750Y1147750D01*
X2530649Y1145749D01*
X2526549Y1141649D01*
X2526549Y1137550D01*
X2528649Y1133449D01*
X2530649Y1131449D01*
X2534750Y1129349D01*
X2547049Y1125250D01*
X2551149Y1123249D01*
X2553149Y1121149D01*
X2555150Y1117049D01*
X2555150Y1110949D01*
X2551149Y1106849D01*
X2544949Y1104850D01*
X2536750Y1104850D01*
X2530649Y1106849D01*
X2526549Y1110949D01*
X2568649Y1147750D02*
G01*
X2578950Y1104850D01*
X2589149Y1147750D02*
G01*
X2578950Y1104850D01*
X2589149Y1147750D02*
G01*
X2599350Y1104850D01*
X2609650Y1147750D02*
G01*
X2599350Y1104850D01*
X2623149Y1147750D02*
G01*
X2623149Y1104850D01*
X2650950Y1147750D02*
G01*
X2650950Y1104850D01*
X2636649Y1147750D02*
G01*
X2665249Y1147750D01*
X2709449Y1137550D02*
G01*
X2707349Y1141649D01*
X2703249Y1145749D01*
X2699149Y1147750D01*
X2691049Y1147750D01*
X2686949Y1145749D01*
X2682849Y1141649D01*
X2680749Y1137550D01*
X2678750Y1131449D01*
X2678750Y1121149D01*
X2680749Y1115050D01*
X2682849Y1110949D01*
X2686949Y1106849D01*
X2691049Y1104850D01*
X2699149Y1104850D01*
X2703249Y1106849D01*
X2707349Y1110949D01*
X2709449Y1115050D01*
X2722950Y1147750D02*
G01*
X2722950Y1104850D01*
X2751549Y1147750D02*
G01*
X2751549Y1104850D01*
X2722950Y1127350D02*
G01*
X2751549Y1127350D01*
X2765050Y1090450D02*
G01*
X2801850Y1090450D01*
X2815349Y1139549D02*
G01*
X2819449Y1141649D01*
X2825649Y1147750D01*
X2825649Y1104850D01*
X2322849Y2368249D02*
G01*
X2322849Y2325250D01*
X2322849Y2325250D02*
G01*
X2347349Y2325250D01*
X2360850Y2368249D02*
G01*
X2360850Y2325250D01*
X2374350Y2368249D02*
G01*
X2374350Y2325250D01*
X2374350Y2368249D02*
G01*
X2390749Y2325250D01*
X2407150Y2368249D02*
G01*
X2390749Y2325250D01*
X2407150Y2368249D02*
G01*
X2407150Y2325250D01*
X2420649Y2368249D02*
G01*
X2420649Y2325250D01*
X2448450Y2368249D02*
G01*
X2448450Y2325250D01*
X2434149Y2368249D02*
G01*
X2462749Y2368249D01*
X2476250Y2310949D02*
G01*
X2513050Y2310949D01*
X2555150Y2362150D02*
G01*
X2551149Y2366149D01*
X2544949Y2368249D01*
X2536750Y2368249D01*
X2530649Y2366149D01*
X2526549Y2362150D01*
X2526549Y2358049D01*
X2528649Y2353950D01*
X2530649Y2351849D01*
X2534750Y2349850D01*
X2547049Y2345749D01*
X2551149Y2343649D01*
X2553149Y2341649D01*
X2555150Y2337550D01*
X2555150Y2331450D01*
X2551149Y2327350D01*
X2544949Y2325250D01*
X2536750Y2325250D01*
X2530649Y2327350D01*
X2526549Y2331450D01*
X2568649Y2368249D02*
G01*
X2578950Y2325250D01*
X2589149Y2368249D02*
G01*
X2578950Y2325250D01*
X2589149Y2368249D02*
G01*
X2599350Y2325250D01*
X2609650Y2368249D02*
G01*
X2599350Y2325250D01*
X2623149Y2368249D02*
G01*
X2623149Y2325250D01*
X2650950Y2368249D02*
G01*
X2650950Y2325250D01*
X2636649Y2368249D02*
G01*
X2665249Y2368249D01*
X2709449Y2358049D02*
G01*
X2707349Y2362150D01*
X2703249Y2366149D01*
X2699149Y2368249D01*
X2691049Y2368249D01*
X2686949Y2366149D01*
X2682849Y2362150D01*
X2680749Y2358049D01*
X2678750Y2351849D01*
X2678750Y2341649D01*
X2680749Y2335549D01*
X2682849Y2331450D01*
X2686949Y2327350D01*
X2691049Y2325250D01*
X2699149Y2325250D01*
X2703249Y2327350D01*
X2707349Y2331450D01*
X2709449Y2335549D01*
X2722950Y2368249D02*
G01*
X2722950Y2325250D01*
X2751549Y2368249D02*
G01*
X2751549Y2325250D01*
X2722950Y2347750D02*
G01*
X2751549Y2347750D01*
X2765050Y2310949D02*
G01*
X2801850Y2310949D01*
X2817449Y2358049D02*
G01*
X2817449Y2360050D01*
X2819449Y2364149D01*
X2821549Y2366149D01*
X2825649Y2368249D01*
X2833750Y2368249D01*
X2837849Y2366149D01*
X2839949Y2364149D01*
X2841949Y2360050D01*
X2841949Y2355949D01*
X2839949Y2351849D01*
X2835850Y2345749D01*
X2815349Y2325250D01*
X2844049Y2325250D01*
X596550Y2322809D02*
G01*
X553649Y2322809D01*
X596550Y2322809D02*
G01*
X596550Y2304409D01*
X594549Y2298310D01*
X592449Y2296210D01*
X588449Y2294209D01*
X584349Y2294209D01*
X580250Y2296210D01*
X578150Y2298310D01*
X576149Y2304409D01*
X576149Y2322809D02*
G01*
X576149Y2304409D01*
X574050Y2298310D01*
X572049Y2296210D01*
X567950Y2294209D01*
X561849Y2294209D01*
X557750Y2296210D01*
X555650Y2298310D01*
X553649Y2304409D01*
X553649Y2322809D01*
X596550Y2280709D02*
G01*
X565949Y2280709D01*
X559749Y2278609D01*
X555650Y2274510D01*
X553649Y2268409D01*
X553649Y2264310D01*
X555650Y2258209D01*
X559749Y2254110D01*
X565949Y2252010D01*
X596550Y2252010D01*
X596550Y2224209D02*
G01*
X553649Y2224209D01*
X596550Y2238510D02*
G01*
X596550Y2209910D01*
X596550Y2182109D02*
G01*
X553649Y2182109D01*
X596550Y2196410D02*
G01*
X596550Y2167809D01*
X596550Y2142010D02*
G01*
X594549Y2146109D01*
X590450Y2150210D01*
X586350Y2152210D01*
X580250Y2154310D01*
X569949Y2154310D01*
X563850Y2152210D01*
X559749Y2150210D01*
X555650Y2146109D01*
X553649Y2142010D01*
X553649Y2133809D01*
X555650Y2129710D01*
X559749Y2125610D01*
X563850Y2123609D01*
X569949Y2121509D01*
X580250Y2121509D01*
X586350Y2123609D01*
X590450Y2125610D01*
X594549Y2129710D01*
X596550Y2133809D01*
X596550Y2142010D01*
X596550Y2108009D02*
G01*
X553649Y2108009D01*
X596550Y2108009D02*
G01*
X553649Y2079409D01*
X596550Y2079409D02*
G01*
X553649Y2079409D01*
X539349Y2065909D02*
G01*
X539349Y2029110D01*
X588449Y2015610D02*
G01*
X590450Y2011509D01*
X596550Y2005410D01*
X553649Y2005410D01*
G36*
X1879920Y826780D02*
G01*
X1879920Y590540D01*
X1884940Y596060D01*
X1889700Y601760D01*
X1894220Y607680D01*
X1896399Y610720D01*
X1900520Y616920D01*
X1904360Y623300D01*
X1907940Y629820D01*
X1911220Y636520D01*
X1914220Y643340D01*
X1916900Y650280D01*
X1918140Y653780D01*
X1920360Y660900D01*
X1922280Y668080D01*
X1923899Y675360D01*
X1925180Y682700D01*
X1926160Y690080D01*
X1926800Y697500D01*
X1927120Y704940D01*
X1927120Y712380D01*
X1926800Y719820D01*
X1926160Y727240D01*
X1925180Y734620D01*
X1923899Y741960D01*
X1922280Y749240D01*
X1920360Y756420D01*
X1918140Y763540D01*
X1915600Y770540D01*
X1912760Y777420D01*
X1909620Y784160D01*
X1906180Y790780D01*
X1902480Y797240D01*
X1898480Y803520D01*
X1896399Y806600D01*
X1892000Y812620D01*
X1887360Y818439D01*
X1882460Y824040D01*
G37*
G36*
X3031500Y984260D02*
G01*
X3037000Y979240D01*
X3042700Y974460D01*
X3048620Y969940D01*
X3054740Y965680D01*
X3061019Y961700D01*
X3067480Y957980D01*
X3074100Y954560D01*
X3080840Y951420D01*
X3087720Y948580D01*
X3094720Y946040D01*
X3101840Y943800D01*
X3109020Y941880D01*
X3116300Y940280D01*
X3123639Y938980D01*
X3131019Y938020D01*
X3138440Y937380D01*
X3145880Y937039D01*
X3153320Y937039D01*
X3160760Y937380D01*
X3168180Y938020D01*
X3175560Y938980D01*
X3182900Y940280D01*
X3190179Y941880D01*
X3197360Y943800D01*
X3204480Y946040D01*
X3211480Y948580D01*
X3218360Y951420D01*
X3225100Y954560D01*
X3231720Y957980D01*
X3238180Y961700D01*
X3244460Y965680D01*
X3250580Y969940D01*
X3256500Y974460D01*
X3262200Y979240D01*
X3267700Y984260D01*
G37*
G36*
X3031500Y2204720D02*
G01*
X3037000Y2199700D01*
X3042700Y2194940D01*
X3048620Y2190420D01*
X3051660Y2188240D01*
X3057860Y2184120D01*
X3064240Y2180280D01*
X3070760Y2176700D01*
X3077460Y2173420D01*
X3084280Y2170420D01*
X3091220Y2167740D01*
X3094720Y2166500D01*
X3101840Y2164280D01*
X3109020Y2162360D01*
X3116300Y2160740D01*
X3123639Y2159460D01*
X3131019Y2158480D01*
X3138440Y2157840D01*
X3145880Y2157520D01*
X3153320Y2157520D01*
X3160760Y2157840D01*
X3168180Y2158480D01*
X3175560Y2159460D01*
X3182900Y2160740D01*
X3190179Y2162360D01*
X3197360Y2164280D01*
X3204480Y2166500D01*
X3211480Y2169040D01*
X3218360Y2171880D01*
X3225100Y2175020D01*
X3231720Y2178460D01*
X3238180Y2182160D01*
X3244460Y2186160D01*
X3247540Y2188240D01*
X3253560Y2192640D01*
X3259380Y2197280D01*
X3264980Y2202180D01*
X3267700Y2204720D01*
G37*
D12*
X869250Y2276395D02*
G01*
X869250Y2174409D01*
X889762Y2174409D01*
X889762Y2276395D02*
G01*
X869250Y2276395D01*
X1110234Y2027559D02*
G01*
X889762Y2027559D01*
X1110234Y2421260D02*
G01*
X889762Y2421260D01*
X889762Y2027559D02*
G01*
X889762Y2421260D01*
X1110234Y2027559D02*
G01*
X1110234Y2421260D01*
X1084250Y2394405D02*
G01*
X1084250Y2054405D01*
X914250Y2054405D01*
X914250Y2394405D01*
X1084250Y2394405D01*
X278699Y1331516D02*
G01*
X278699Y1229529D01*
X299212Y1229529D01*
X299212Y1331516D02*
G01*
X278699Y1331516D01*
X519684Y1082680D02*
G01*
X299212Y1082680D01*
X519684Y1476379D02*
G01*
X299212Y1476379D01*
X299212Y1082680D02*
G01*
X299212Y1476379D01*
X519684Y1082680D02*
G01*
X519684Y1476379D01*
X493699Y1449524D02*
G01*
X493699Y1109524D01*
X323699Y1109524D01*
X323699Y1449524D01*
X493699Y1449524D01*
X869250Y1331516D02*
G01*
X869250Y1229529D01*
X889762Y1229529D01*
X889762Y1331516D02*
G01*
X869250Y1331516D01*
X1110234Y1082680D02*
G01*
X889762Y1082680D01*
X1110234Y1476379D02*
G01*
X889762Y1476379D01*
X889762Y1082680D02*
G01*
X889762Y1476379D01*
X1110234Y1082680D02*
G01*
X1110234Y1476379D01*
X1084250Y1449524D02*
G01*
X1084250Y1109524D01*
X914250Y1109524D01*
X914250Y1449524D01*
X1084250Y1449524D01*
X1685036Y755904D02*
G01*
X1636036Y755904D01*
X1660536Y729403D02*
G01*
X1660536Y782404D01*
X3196844Y1179133D02*
G01*
X3196844Y1228134D01*
X3170343Y1203634D02*
G01*
X3223343Y1203634D01*
X3196844Y2399603D02*
G01*
X3196844Y2448604D01*
X3170343Y2424104D02*
G01*
X3223343Y2424104D01*
X487202Y544792D02*
G01*
X456691Y544792D01*
X456691Y479319D01*
X485329Y479319D01*
X487202Y481192D01*
X487202Y760842D02*
G01*
X456691Y760842D01*
X456691Y695369D01*
X485329Y695369D01*
X487202Y697242D01*
X258859Y866143D02*
G01*
X487202Y866143D01*
X487202Y374016D01*
X258859Y374016D01*
X258859Y865749D01*
X259252Y866143D01*
X1077753Y544792D02*
G01*
X1047241Y544792D01*
X1047241Y479319D01*
X1075879Y479319D01*
X1077753Y481192D01*
X1077753Y760842D02*
G01*
X1047241Y760842D01*
X1047241Y695369D01*
X1075879Y695369D01*
X1077753Y697242D01*
X849408Y866143D02*
G01*
X1077753Y866143D01*
X1077753Y374016D01*
X849408Y374016D01*
X849408Y865749D01*
X849801Y866143D01*
X3056096Y637887D02*
G01*
X3086607Y637887D01*
X3086607Y703360D01*
X3057970Y703360D01*
X3056096Y701487D01*
X3056096Y421837D02*
G01*
X3086607Y421837D01*
X3086607Y487310D01*
X3057970Y487310D01*
X3056096Y485437D01*
X3284440Y316536D02*
G01*
X3056096Y316536D01*
X3056096Y808663D01*
X3284440Y808663D01*
X3284440Y316930D01*
X3284048Y316536D01*
X3056107Y1858357D02*
G01*
X3086617Y1858357D01*
X3086617Y1923831D01*
X3057981Y1923831D01*
X3056107Y1921957D01*
X3056107Y1642307D02*
G01*
X3086617Y1642307D01*
X3086617Y1707781D01*
X3057981Y1707781D01*
X3056107Y1705907D01*
X3284450Y1537006D02*
G01*
X3056107Y1537006D01*
X3056107Y2029133D01*
X3284450Y2029133D01*
X3284450Y1537399D01*
X3284058Y1537006D01*
X1585645Y-7361D02*
G01*
X1949818Y-7361D01*
X1686039Y354059D02*
G01*
X1585645Y354059D01*
X1857299Y135823D02*
G01*
X1857299Y354059D01*
X1686039Y135823D02*
G01*
X1686039Y354059D01*
X1686039Y354059D02*
G01*
X1916126Y354059D01*
X1686039Y419286D02*
G01*
X1689032Y419286D01*
X1636827Y419286D02*
G01*
X1686039Y419286D01*
X1686039Y135823D02*
G01*
X1686039Y122044D01*
X1857299Y122044D01*
X1857299Y135823D01*
X1949818Y392651D02*
G01*
X1949818Y419286D01*
X1854277Y419286D01*
X1636827Y419286D02*
G01*
X1585645Y419286D01*
X1585645Y-141736D01*
X1949818Y-141736D01*
X1949818Y229416D01*
X2362241Y964956D02*
G01*
X2272241Y964956D01*
X2364481Y1074405D02*
G01*
X2364481Y255506D01*
X2269992Y255506D01*
X2269992Y1074405D01*
X2364481Y1074405D01*
X2772240Y364960D02*
G01*
X2862240Y364960D01*
X2770000Y255509D02*
G01*
X2770000Y1074409D01*
X2864489Y1074409D01*
X2864489Y255509D01*
X2770000Y255509D01*
X2611036Y1414209D02*
G01*
X2509049Y1414209D01*
X2509049Y1393697D01*
X2611036Y1393697D02*
G01*
X2611036Y1414209D01*
X2362200Y1173225D02*
G01*
X2362200Y1393697D01*
X2755900Y1173225D02*
G01*
X2755900Y1393697D01*
X2362200Y1393697D02*
G01*
X2755900Y1393697D01*
X2362200Y1173225D02*
G01*
X2755900Y1173225D01*
X2729044Y1199209D02*
G01*
X2389044Y1199209D01*
X2389044Y1369209D01*
X2729044Y1369209D01*
X2729044Y1199209D01*
X2362236Y2185426D02*
G01*
X2272236Y2185426D01*
X2364476Y2294875D02*
G01*
X2364476Y1475976D01*
X2269985Y1475976D01*
X2269985Y2294875D01*
X2364476Y2294875D01*
X2772240Y1585430D02*
G01*
X2862240Y1585430D01*
X2770000Y1475979D02*
G01*
X2770000Y2294879D01*
X2864489Y2294879D01*
X2864489Y1475979D01*
X2770000Y1475979D01*
X2611036Y2634679D02*
G01*
X2509049Y2634679D01*
X2509049Y2614167D01*
X2611036Y2614167D02*
G01*
X2611036Y2634679D01*
X2362200Y2393696D02*
G01*
X2362200Y2614167D01*
X2755900Y2393696D02*
G01*
X2755900Y2614167D01*
X2362200Y2614167D02*
G01*
X2755900Y2614167D01*
X2362200Y2393696D02*
G01*
X2755900Y2393696D01*
X2729044Y2419679D02*
G01*
X2389044Y2419679D01*
X2389044Y2589679D01*
X2729044Y2589679D01*
X2729044Y2419679D01*
X278699Y2276395D02*
G01*
X278699Y2174409D01*
X299212Y2174409D01*
X299212Y2276395D02*
G01*
X278699Y2276395D01*
X519684Y2027559D02*
G01*
X299212Y2027559D01*
X519684Y2421260D02*
G01*
X299212Y2421260D01*
X299212Y2027559D02*
G01*
X299212Y2421260D01*
X519684Y2027559D02*
G01*
X519684Y2421260D01*
X493699Y2394405D02*
G01*
X493699Y2054405D01*
X323699Y2054405D01*
X323699Y2394405D01*
X493699Y2394405D01*
D10*
X1506689Y2446649D02*
G01*
X1506689Y2531649D01*
X1406689Y2531649D01*
X1406689Y1011649D01*
X1506689Y1011649D01*
X1506689Y1021649D01*
D13*
X1506689Y1021649D02*
G01*
X1506689Y2446649D01*
D10*
X2006689Y1096649D02*
G01*
X2006689Y1011649D01*
X2106689Y1011649D01*
X2106689Y2531649D01*
X2006689Y2531649D01*
X2006689Y2521649D01*
D13*
X2006689Y2521649D02*
G01*
X2006689Y1096649D01*
D12*
X275592Y1942908D02*
G01*
X519686Y1942910D01*
X275592Y1836610D02*
G01*
X519686Y1836610D01*
X519686Y1836610D02*
G01*
X519686Y1942910D01*
X275592Y1836610D02*
G01*
X275592Y1942908D01*
X1110236Y1836610D02*
G01*
X866143Y1836610D01*
X1110236Y1942908D02*
G01*
X866143Y1942910D01*
X866143Y1942908D02*
G01*
X866143Y1836610D01*
X1110236Y1942910D02*
G01*
X1110236Y1836610D01*
X519686Y1561021D02*
G01*
X275592Y1561019D01*
X519686Y1667319D02*
G01*
X275592Y1667319D01*
X275592Y1667319D02*
G01*
X275592Y1561019D01*
X519686Y1667319D02*
G01*
X519686Y1561021D01*
X866143Y1667319D02*
G01*
X1110236Y1667319D01*
X866143Y1561021D02*
G01*
X1110236Y1561019D01*
X1110236Y1561021D02*
G01*
X1110236Y1667319D01*
X866143Y1561019D02*
G01*
X866143Y1667319D01*
G75*
G01*
X1771750Y866160D02*
G03*
X1774550Y866160I1400J-157474D01*
G75*
G01*
X3307100Y1092420D02*
G03*
X3307100Y1089620I-157474J-1400D01*
G75*
G01*
X3307100Y2312890D02*
G03*
X3307100Y2310090I-157474J-1400D01*
G75*
G01*
X1661868Y419287D02*
G03*
X1875900Y419290I107016J2D01*
M02*
