G04 Layer: TopSolderMaskLayer*
G04 EasyEDA v6.5.42, 2024-04-20 17:29:38*
G04 88c8a89ba0d84e72ac533820636c5c94,79741c9dc20a42bbb4667d943d95035a,10*
G04 Gerber Generator version 0.2*
G04 Scale: 100 percent, Rotated: No, Reflected: No *
G04 Dimensions in inches *
G04 leading zeros omitted , absolute positions ,3 integer and 6 decimal *
%FSLAX36Y36*%
%MOIN*%

%AMMACRO1*1,1,$1,$2,$3*1,1,$1,$4,$5*1,1,$1,0-$2,0-$3*1,1,$1,0-$4,0-$5*20,1,$1,$2,$3,$4,$5,0*20,1,$1,$4,$5,0-$2,0-$3,0*20,1,$1,0-$2,0-$3,0-$4,0-$5,0*20,1,$1,0-$4,0-$5,$2,$3,0*4,1,4,$2,$3,$4,$5,0-$2,0-$3,0-$4,0-$5,$2,$3,0*%
%ADD10MACRO1,0.0039X0.03X0.03X0.03X-0.03*%
%ADD11C,0.0639*%
%ADD12C,0.0670*%
%ADD13C,0.0709*%
%ADD14O,0.063055X0.149669*%
%ADD15O,0.153606X0.063055*%
%ADD16C,0.0709*%
%ADD17MACRO1,0.004X0.0335X0.031X0.0335X-0.031*%
%ADD18R,0.0709X0.0660*%
%ADD19MACRO1,0.0039X0.03X-0.03X-0.03X-0.03*%
%ADD20MACRO1,0.004X0.031X0.0335X0.031X-0.0335*%
%ADD21R,0.0660X0.0709*%
%ADD22C,0.0591*%

%LPD*%
D10*
G01*
X984250Y2322835D03*
D11*
G01*
X984250Y2224400D03*
G01*
X984250Y2125979D03*
D10*
G01*
X393699Y1377955D03*
D11*
G01*
X393699Y1279520D03*
G01*
X393699Y1181100D03*
D10*
G01*
X984250Y1377955D03*
D11*
G01*
X984250Y1279520D03*
G01*
X984250Y1181100D03*
D12*
G01*
X1840550Y708659D03*
G01*
X1702749Y708659D03*
G01*
X3149600Y1023620D03*
G01*
X3149600Y1161419D03*
G01*
X3149600Y2244090D03*
G01*
X3149600Y2381889D03*
D13*
G01*
X393699Y472440D03*
G01*
X393699Y570869D03*
G01*
X393699Y669290D03*
G01*
X393699Y767719D03*
G01*
X984250Y472440D03*
G01*
X984250Y570869D03*
G01*
X984250Y669290D03*
G01*
X984250Y767719D03*
G01*
X3149600Y710239D03*
G01*
X3149600Y611810D03*
G01*
X3149600Y513389D03*
G01*
X3149600Y414960D03*
G01*
X3149610Y1930709D03*
G01*
X3149610Y1832280D03*
G01*
X3149610Y1733859D03*
G01*
X3149600Y1635430D03*
D14*
G01*
X1954750Y295289D03*
D15*
G01*
X1771649Y157489D03*
G01*
X1771649Y393690D03*
D16*
G01*
X2317240Y314960D03*
G01*
X2317240Y414960D03*
G01*
X2317240Y514960D03*
G01*
X2317240Y614960D03*
G01*
X2317240Y714960D03*
G01*
X2317240Y814960D03*
G01*
X2317240Y914960D03*
D17*
G01*
X2317239Y1014960D03*
D16*
G01*
X2817240Y1014960D03*
G01*
X2817240Y914960D03*
G01*
X2817240Y814960D03*
G01*
X2817240Y714960D03*
G01*
X2817240Y614960D03*
G01*
X2817240Y514960D03*
G01*
X2817240Y414960D03*
D18*
G01*
X2817240Y314960D03*
D19*
G01*
X2657475Y1299209D03*
D11*
G01*
X2559049Y1299209D03*
G01*
X2460630Y1299209D03*
D16*
G01*
X2317240Y1535430D03*
G01*
X2317240Y1635430D03*
G01*
X2317240Y1735430D03*
G01*
X2317240Y1835430D03*
G01*
X2317240Y1935430D03*
G01*
X2317240Y2035430D03*
G01*
X2317240Y2135430D03*
D17*
G01*
X2317239Y2235430D03*
D16*
G01*
X2817240Y2235430D03*
G01*
X2817240Y2135430D03*
G01*
X2817240Y2035430D03*
G01*
X2817240Y1935430D03*
G01*
X2817240Y1835430D03*
G01*
X2817240Y1735430D03*
G01*
X2817240Y1635430D03*
D18*
G01*
X2817240Y1535430D03*
D19*
G01*
X2657479Y2519679D03*
D11*
G01*
X2559049Y2519679D03*
G01*
X2460630Y2519679D03*
D10*
G01*
X393699Y2322835D03*
D11*
G01*
X393699Y2224400D03*
G01*
X393699Y2125979D03*
D16*
G01*
X1456689Y1071649D03*
G01*
X1456689Y1171649D03*
G01*
X1456689Y1271649D03*
G01*
X1456689Y1371649D03*
G01*
X1456689Y1471649D03*
G01*
X1456689Y1571649D03*
G01*
X1456689Y1671649D03*
G01*
X1456689Y1771649D03*
G01*
X1456689Y1871649D03*
G01*
X1456689Y1971649D03*
G01*
X1456689Y2071649D03*
G01*
X1456689Y2171649D03*
G01*
X1456689Y2271649D03*
G01*
X1456689Y2371649D03*
D20*
G01*
X1456690Y2471649D03*
D16*
G01*
X2056689Y2471649D03*
G01*
X2056689Y2371649D03*
G01*
X2056689Y2271649D03*
G01*
X2056689Y2171649D03*
G01*
X2056689Y2071649D03*
G01*
X2056689Y1971649D03*
G01*
X2056689Y1871649D03*
G01*
X2056689Y1771649D03*
G01*
X2056689Y1671649D03*
G01*
X2056689Y1571649D03*
G01*
X2056689Y1471649D03*
G01*
X2056689Y1371649D03*
G01*
X2056689Y1271649D03*
G01*
X2056689Y1171649D03*
D21*
G01*
X2056689Y1071649D03*
D22*
G01*
X196849Y1889760D03*
G01*
X598429Y1889760D03*
G01*
X1188980Y1889760D03*
G01*
X787399Y1889760D03*
G01*
X598429Y1614169D03*
G01*
X196849Y1614169D03*
G01*
X787399Y1614169D03*
G01*
X1188980Y1614169D03*
D13*
G01*
X137800Y2618099D03*
G01*
X137800Y137789D03*
G01*
X3405510Y137789D03*
G01*
X3405510Y2618099D03*
M02*
