G04 Layer: TopLayer*
G04 EasyEDA v6.5.42, 2024-04-20 17:29:38*
G04 88c8a89ba0d84e72ac533820636c5c94,79741c9dc20a42bbb4667d943d95035a,10*
G04 Gerber Generator version 0.2*
G04 Scale: 100 percent, Rotated: No, Reflected: No *
G04 Dimensions in inches *
G04 leading zeros omitted , absolute positions ,3 integer and 6 decimal *
%FSLAX36Y36*%
%MOIN*%

%ADD10C,0.0300*%
%ADD11C,0.0100*%
%ADD12C,0.0800*%
%ADD13R,0.0600X0.0600*%
%ADD14C,0.0600*%
%ADD15C,0.0630*%
%ADD16C,0.0669*%
%ADD17O,0.059054999999999996X0.145669*%
%ADD18O,0.149606X0.059054999999999996*%
%ADD19R,0.0669X0.0620*%
%ADD20R,0.0620X0.0669*%
%ADD21C,0.0551*%
%ADD22C,0.0184*%

%LPD*%
D10*
X1456700Y1371700D02*
G01*
X1529099Y1371700D01*
X1614200Y1456700D01*
X1614200Y2519699D01*
X1732299Y2637800D01*
X2795299Y2637800D01*
X2834600Y2598400D01*
X2834600Y2440900D01*
X2716499Y2322800D01*
X2716499Y1736100D01*
X2817200Y1635399D01*
D11*
X2056700Y1971700D02*
G01*
X2165399Y2080300D01*
X2165399Y2362199D01*
X2204700Y2401599D01*
X2401899Y2401599D01*
X2460799Y2460999D01*
X2460600Y2519699D01*
X118099Y551199D02*
G01*
X118099Y393699D01*
X236199Y275599D01*
X708699Y275599D01*
X787399Y354299D01*
X787399Y669299D01*
X885799Y767699D01*
X984200Y767699D01*
X2817200Y1635399D02*
G01*
X2952700Y1499899D01*
X2952700Y1299200D01*
X2677200Y1023600D01*
X2677200Y555000D01*
X2817200Y415000D01*
D10*
X3149600Y1161419D02*
G01*
X2963699Y1161419D01*
X2817240Y1014960D01*
D12*
X1702700Y708699D02*
G01*
X1702700Y718499D01*
X1850399Y866100D01*
X2047200Y866100D01*
X2126000Y787399D01*
X2126000Y236199D01*
X2204700Y157500D01*
X3149600Y157500D01*
X3385799Y393699D01*
X3385799Y1063000D01*
X3287399Y1161399D01*
X3149600Y1161399D01*
X3291000Y1160999D02*
G01*
X3385820Y1259839D01*
X3385799Y2145700D01*
X3149600Y2381900D01*
D10*
X196849Y1889760D02*
G01*
X118110Y1811019D01*
X118110Y551179D01*
X196849Y472440D01*
X393699Y472440D01*
D11*
X2817240Y714960D02*
G01*
X3046450Y714960D01*
X3149600Y611810D01*
X1456700Y1771700D02*
G01*
X1259799Y1574800D01*
X1259799Y1102300D01*
X1102399Y944899D01*
X748000Y944899D01*
X570900Y767699D01*
X393699Y767699D01*
X984200Y669299D02*
G01*
X1181099Y669299D01*
X1338599Y826799D01*
X1338599Y1453499D01*
X1456700Y1571700D01*
X984200Y570900D02*
G01*
X1161499Y570900D01*
X1377899Y787300D01*
X1377899Y1392899D01*
X1456700Y1471700D01*
D10*
X1456689Y1071649D02*
G01*
X1456689Y954720D01*
X1702749Y708659D01*
D11*
X196900Y1889800D02*
G01*
X315000Y1771700D01*
X1063000Y1771700D01*
X1181099Y1889800D01*
X1188999Y1889800D01*
X196849Y1889760D02*
G01*
X196849Y1811019D01*
X314960Y1692910D01*
X708659Y1692910D01*
X787399Y1614169D01*
X196900Y1889800D02*
G01*
X196900Y1732300D01*
X315000Y1614200D01*
X598400Y1614200D01*
D10*
X1614200Y2519699D02*
G01*
X1496059Y2637790D01*
X433099Y2637800D01*
X196900Y2401599D01*
X196900Y1889800D01*
D11*
X196849Y1614169D02*
G01*
X196849Y1338580D01*
X236219Y1299209D01*
X374009Y1299209D01*
X393699Y1279520D01*
X393699Y2224400D02*
G01*
X334639Y2224400D01*
X275590Y2165349D01*
X275590Y2007869D01*
X354329Y1929130D01*
X559059Y1929130D01*
X598429Y1889760D01*
X984250Y2224400D02*
G01*
X787399Y2027550D01*
X787399Y1889760D01*
X984250Y1279520D02*
G01*
X1188980Y1484250D01*
X1188980Y1614169D01*
X984200Y1181100D02*
G01*
X866139Y1259839D01*
X866099Y1417300D01*
X1181099Y1732300D01*
X1317299Y1732300D01*
X1456700Y1871700D01*
X393699Y1181100D02*
G01*
X787399Y1181100D01*
X826800Y1220500D01*
X826800Y1456700D01*
X1141700Y1771700D01*
X1259799Y1771700D01*
X1456700Y1971700D01*
X393699Y2125979D02*
G01*
X472440Y2125979D01*
X826769Y2480309D01*
X1148029Y2480309D01*
X1456689Y2171649D01*
X984250Y2125979D02*
G01*
X1141729Y2125979D01*
X1181099Y2086610D01*
X1441729Y2086610D01*
X1456689Y2071649D01*
X393699Y669290D02*
G01*
X590549Y669290D01*
X826769Y905509D01*
X1141729Y905509D01*
X1299210Y1062989D01*
X1299210Y1514169D01*
X1456689Y1671649D01*
X2056689Y1471649D02*
G01*
X2204719Y1323620D01*
X2204719Y427480D01*
X2317240Y314960D01*
X2056689Y1571649D02*
G01*
X2440940Y1187399D01*
X2440940Y551179D01*
X2440940Y551179D01*
X2317240Y414960D01*
X2817240Y1735430D02*
G01*
X3049600Y1735430D01*
X3149600Y1635430D01*
X2817240Y1835430D02*
G01*
X3048040Y1835430D01*
X3149610Y1733859D01*
X2817240Y1935430D02*
G01*
X3046459Y1935430D01*
X3149610Y1832280D01*
X2817240Y2035430D02*
G01*
X3044889Y2035430D01*
X3149610Y1930709D01*
X2056700Y1871700D02*
G01*
X2204719Y2007869D01*
X2204719Y2007869D01*
X2204700Y2322800D01*
X2244099Y2362199D01*
X2401599Y2362199D01*
X2440900Y2322800D01*
X2440900Y1318899D01*
X2460600Y1299200D01*
X2317240Y1835430D02*
G01*
X2317240Y1735430D01*
X2056689Y1771649D02*
G01*
X2181019Y1771649D01*
X2317240Y1635430D01*
X2056689Y1671649D02*
G01*
X2181019Y1671649D01*
X2317240Y1535430D01*
X2817240Y514960D02*
G01*
X3049600Y514960D01*
X3149600Y414960D01*
X2817240Y614960D02*
G01*
X3048029Y614960D01*
X3149600Y513389D01*
X2817240Y814960D02*
G01*
X3044880Y814960D01*
X3149600Y710239D01*
D10*
X3149600Y2381889D02*
G01*
X2963699Y2381889D01*
X2817240Y2235430D01*
D12*
X1771649Y393690D02*
G01*
X1771649Y433069D01*
X1692910Y511810D01*
X1692910Y698820D01*
X1702749Y708659D01*
D11*
X2315668Y1652910D02*
G01*
X2317241Y1651334D01*
X2315663Y1552910D02*
G01*
X2317236Y1551334D01*
X2317240Y614960D02*
G01*
X2317240Y514960D01*
D13*
G01*
X984250Y2322829D03*
D14*
G01*
X984250Y2224400D03*
G01*
X984250Y2125979D03*
D13*
G01*
X393699Y1377950D03*
D14*
G01*
X393699Y1279520D03*
G01*
X393699Y1181100D03*
D13*
G01*
X984250Y1377950D03*
D14*
G01*
X984250Y1279520D03*
G01*
X984250Y1181100D03*
D15*
G01*
X1840550Y708659D03*
G01*
X1702749Y708659D03*
G01*
X3149600Y1023620D03*
G01*
X3149600Y1161419D03*
G01*
X3149600Y2244090D03*
G01*
X3149600Y2381889D03*
D16*
G01*
X393699Y472440D03*
G01*
X393699Y570869D03*
G01*
X393699Y669290D03*
G01*
X393699Y767719D03*
G01*
X984250Y472440D03*
G01*
X984250Y570869D03*
G01*
X984250Y669290D03*
G01*
X984250Y767719D03*
G01*
X3149600Y710239D03*
G01*
X3149600Y611810D03*
G01*
X3149600Y513389D03*
G01*
X3149600Y414960D03*
G01*
X3149610Y1930709D03*
G01*
X3149610Y1832280D03*
G01*
X3149610Y1733859D03*
G01*
X3149600Y1635430D03*
D17*
G01*
X1954750Y295289D03*
D18*
G01*
X1771649Y157489D03*
G01*
X1771649Y393690D03*
D16*
G01*
X2317240Y314960D03*
G01*
X2317240Y414960D03*
G01*
X2317240Y514960D03*
G01*
X2317240Y614960D03*
G01*
X2317240Y714960D03*
G01*
X2317240Y814960D03*
G01*
X2317240Y914960D03*
D19*
G01*
X2317240Y1014960D03*
D16*
G01*
X2817240Y1014960D03*
G01*
X2817240Y914960D03*
G01*
X2817240Y814960D03*
G01*
X2817240Y714960D03*
G01*
X2817240Y614960D03*
G01*
X2817240Y514960D03*
G01*
X2817240Y414960D03*
D19*
G01*
X2817240Y314960D03*
D13*
G01*
X2657479Y1299209D03*
D14*
G01*
X2559049Y1299209D03*
G01*
X2460630Y1299209D03*
D16*
G01*
X2317240Y1535430D03*
G01*
X2317240Y1635430D03*
G01*
X2317240Y1735430D03*
G01*
X2317240Y1835430D03*
G01*
X2317240Y1935430D03*
G01*
X2317240Y2035430D03*
G01*
X2317240Y2135430D03*
D19*
G01*
X2317240Y2235430D03*
D16*
G01*
X2817240Y2235430D03*
G01*
X2817240Y2135430D03*
G01*
X2817240Y2035430D03*
G01*
X2817240Y1935430D03*
G01*
X2817240Y1835430D03*
G01*
X2817240Y1735430D03*
G01*
X2817240Y1635430D03*
D19*
G01*
X2817240Y1535430D03*
D13*
G01*
X2657479Y2519679D03*
D14*
G01*
X2559049Y2519679D03*
G01*
X2460630Y2519679D03*
D13*
G01*
X393699Y2322829D03*
D14*
G01*
X393699Y2224400D03*
G01*
X393699Y2125979D03*
D16*
G01*
X1456689Y1071649D03*
G01*
X1456689Y1171649D03*
G01*
X1456689Y1271649D03*
G01*
X1456689Y1371649D03*
G01*
X1456689Y1471649D03*
G01*
X1456689Y1571649D03*
G01*
X1456689Y1671649D03*
G01*
X1456689Y1771649D03*
G01*
X1456689Y1871649D03*
G01*
X1456689Y1971649D03*
G01*
X1456689Y2071649D03*
G01*
X1456689Y2171649D03*
G01*
X1456689Y2271649D03*
G01*
X1456689Y2371649D03*
D20*
G01*
X1456689Y2471649D03*
D16*
G01*
X2056689Y2471649D03*
G01*
X2056689Y2371649D03*
G01*
X2056689Y2271649D03*
G01*
X2056689Y2171649D03*
G01*
X2056689Y2071649D03*
G01*
X2056689Y1971649D03*
G01*
X2056689Y1871649D03*
G01*
X2056689Y1771649D03*
G01*
X2056689Y1671649D03*
G01*
X2056689Y1571649D03*
G01*
X2056689Y1471649D03*
G01*
X2056689Y1371649D03*
G01*
X2056689Y1271649D03*
G01*
X2056689Y1171649D03*
D20*
G01*
X2056689Y1071649D03*
D21*
G01*
X196849Y1889760D03*
G01*
X598429Y1889760D03*
G01*
X1188980Y1889760D03*
G01*
X787399Y1889760D03*
G01*
X598429Y1614169D03*
G01*
X196849Y1614169D03*
G01*
X787399Y1614169D03*
G01*
X1188980Y1614169D03*
D16*
G01*
X137800Y2618099D03*
G01*
X137800Y137789D03*
G01*
X3405510Y137789D03*
G01*
X3405510Y2618099D03*
M02*
